<svg width="163" height="100" viewBox="0 0 163 100" fill="none" xmlns="http://www.w3.org/2000/svg">
<g clip-path="url(#clip0_926_7791)">
<rect y="0.666504" width="163" height="98.67" rx="16" fill="white"/>
<path d="M407.641 283.939C408.063 283.468 408.561 283.403 408.895 282.615C409.373 281.493 409.494 280.26 409.59 279.07C410.224 271.232 411.483 263.558 412.704 255.782C413.262 252.22 413.808 248.658 414.352 245.105C414.352 245.105 419.713 222.701 419.713 219.517C422.915 203.205 403.744 165.118 403.744 165.118C402.804 162.533 402.04 159.869 401.403 157.163C400.943 155.215 400.544 153.245 400.188 151.27C395.092 123.146 397.663 94.5895 397.696 66.2458C397.711 52.1195 397.104 37.9428 394.584 23.9864C391.776 8.43811 386.992 -6.60988 387.151 -22.5077C387.239 -31.5064 387.732 -40.5002 388.498 -49.4701C388.968 -54.9833 389.883 -60.4533 390.522 -65.9497C391.111 -71.0056 391.073 -76.0543 391.458 -81.115C393.136 -103.244 387.917 -124.045 379.295 -144.381C375.638 -153.008 369.499 -158.701 359.47 -161.691C349.026 -164.805 339.093 -169.462 329.183 -173.912C329.183 -173.912 326.779 -175.137 324.398 -177.292H151.56C149.182 -175.137 146.775 -173.912 146.775 -173.912C136.865 -169.462 126.932 -164.801 116.488 -161.686C106.457 -158.694 100.32 -153.006 96.6628 -144.378C88.0415 -124.042 82.8222 -103.242 84.5004 -81.1126C84.8846 -76.0495 84.8467 -71.0032 85.4356 -65.9473C86.0751 -60.4509 86.99 -54.9809 87.4601 -49.4677C88.226 -40.4978 88.7188 -31.504 88.8073 -22.5053C88.9665 -6.6075 84.182 8.44051 81.3739 23.9888C78.854 37.9452 78.2474 52.1218 78.2626 66.2482C78.2954 94.5919 80.8659 123.149 75.7705 151.272C75.4115 153.247 75.0147 155.217 74.5547 157.166C73.9178 159.871 73.1545 162.535 72.2143 165.121C72.2143 165.121 53.0432 203.208 56.2455 219.52C56.2455 222.703 61.6063 245.108 61.6063 245.108C62.1498 248.66 62.6957 252.222 63.2543 255.785C64.4751 263.562 65.7338 271.235 66.3682 279.072C66.4516 280.116 66.5577 281.193 66.904 282.201C67.8291 282.915 68.6985 283.377 69.5073 283.633C69.6236 283.721 69.7398 283.817 69.8511 283.942C69.9648 284.068 70.0886 284.164 70.2175 284.236C70.9834 283.942 71.7113 283.334 72.0803 282.867C73.5058 281.066 74.0492 278.807 74.3475 276.595C76.1925 262.962 78.5103 249.379 80.1708 235.707C80.3452 234.261 80.4312 225.684 82.8929 225.432C84.8619 225.231 84.5459 236.14 84.5662 237.177C84.6925 244.22 84.5737 251.401 85.6024 258.389C85.6606 258.775 85.7288 259.565 85.835 260.541C87.8721 268.125 94.4108 263.34 94.4916 260.541C94.5397 258.909 97.3477 234.783 99.6781 214.983C100.254 209.207 101.002 203.445 101.72 197.682C102.35 192.361 102.757 188.954 102.757 188.954L103.884 178.388C103.406 147.952 127.996 71.2514 127.999 71.2443C130.076 60.7303 131.284 51.2577 131.906 42.9102C131.949 42.5271 131.995 42.1417 132.035 41.7587C132.022 41.6965 132.012 41.627 132 41.5624C133.122 25.1116 131.985 13.1828 130.943 6.42963C130.943 6.42963 130.726 2.55393 130.43 -3.69174C130.43 -3.69174 130.43 -3.69652 130.43 -3.7061C130.124 -10.1122 129.735 -19.0079 129.404 -28.7893C129.404 -29.6774 129.401 -30.5488 129.399 -31.4106L135.088 -70.388C135.088 -70.388 138.159 -48.3881 145.117 -23.6209C149.245 -6.04254 155.349 27.9675 148.944 55.4398C148.067 58.1952 147.167 60.9457 146.25 63.6915C143.197 72.8218 139.956 81.9043 136.759 90.9987C123.148 136.38 103.434 231.963 139.072 329.22C139.084 329.253 139.097 329.284 139.11 329.315C139.506 330.366 139.898 331.42 140.285 332.473C144.796 344.373 147.794 353.999 149.518 361.662C150.344 364.812 151.113 367.972 151.83 371.139C155.652 387.351 158.164 403.909 160.027 420.396C161.7 435.219 162.694 450.138 162.443 465.044C162.031 489.716 159.562 513.509 161.903 538.228C163.209 552.024 163.829 565.901 166.129 579.604C168.418 593.24 173.41 606.001 177.684 619.163C179.951 626.148 181.789 633.249 183.778 640.311C183.778 640.311 183.894 640.88 184.147 641.831V654.487C184.147 654.487 182.38 662.955 183.065 671.094H220.912C220.821 669.897 220.788 668.975 220.831 667.922C221.577 663.134 220.498 660.944 220.498 660.944C220.313 656.908 216.509 651.507 216.795 646.927C217.083 642.348 223.316 597.47 224.858 587.236C230.479 546.635 226.063 511.677 223.862 498.322C223.475 496.397 223.124 494.472 222.805 492.548C220.326 477.622 219.894 462.768 221.936 447.827C222.032 446.343 222.34 444.328 222.906 441.692C222.927 441.594 222.947 441.491 222.969 441.39C223.149 440.418 223.333 439.449 223.533 438.474C228.894 408.316 223.854 358.229 223.854 358.229C221.625 338.146 227.81 276.513 227.81 276.516C232.668 251.224 237.978 219.546 237.978 219.546V219.548V219.546C237.978 219.546 243.288 251.227 248.146 276.516C248.146 276.516 254.331 338.149 252.101 358.229C252.101 358.229 247.062 408.314 252.422 438.474C252.625 439.446 252.807 440.418 252.986 441.39C253.006 441.491 253.027 441.591 253.047 441.692C253.613 444.328 253.921 446.341 254.017 447.827C256.06 462.768 255.627 477.622 253.148 492.548C252.829 494.47 252.478 496.395 252.091 498.319C249.89 511.673 245.474 546.63 251.096 587.231C252.637 597.462 258.87 642.341 259.158 646.918C259.446 651.497 255.642 656.893 255.455 660.929C255.455 660.929 254.374 663.132 255.122 667.919C255.167 668.973 255.134 669.894 255.041 671.091H292.888C293.573 662.952 291.816 654.485 291.816 654.485V641.828C292.069 640.878 292.18 640.308 292.18 640.308C294.169 633.246 296.007 626.146 298.274 619.161C302.548 605.999 307.537 593.237 309.827 579.602C312.127 565.899 312.744 552.022 314.05 538.226C316.391 513.504 313.922 489.711 313.507 465.042C313.257 450.135 314.25 435.216 315.923 420.393C317.786 403.907 320.298 387.348 324.12 371.137C324.835 367.97 325.604 364.81 326.433 361.659C328.154 353.996 331.154 344.371 335.666 332.471C336.052 331.417 336.444 330.364 336.841 329.313C336.854 329.282 336.866 329.248 336.879 329.217C372.517 231.961 352.8 136.377 339.192 90.9963C335.994 81.9019 332.754 72.8194 329.701 63.6891C328.783 60.9433 327.883 58.1928 327.006 55.4374C320.604 27.9651 326.706 -6.04493 330.833 -23.6233C337.791 -48.3905 340.862 -70.3904 340.862 -70.3904L346.552 -31.413C346.552 -30.5536 346.552 -29.6798 346.547 -28.7917C346.215 -19.0102 345.826 -10.1146 345.52 -3.7085C345.52 -3.69892 345.52 -3.69413 345.52 -3.69413C345.222 2.54914 345.007 6.42485 345.007 6.42485C343.966 13.1804 342.829 25.1068 343.951 41.56C343.938 41.6246 343.928 41.6941 343.915 41.7563C343.956 42.1393 344.004 42.5247 344.044 42.9078C344.666 51.2553 345.874 60.7303 347.952 71.2419C347.952 71.249 372.544 147.949 372.067 178.385L373.194 188.952C373.194 188.952 373.598 192.358 374.23 197.68C374.948 203.442 375.696 209.204 376.272 214.981C378.603 234.781 381.411 258.906 381.459 260.539C381.54 263.337 388.078 268.123 390.116 260.539C390.219 259.562 390.29 258.772 390.348 258.387C391.379 251.397 391.258 244.215 391.384 237.174C391.402 236.138 391.089 225.229 393.058 225.43C395.519 225.681 395.605 234.259 395.78 235.705C397.44 249.376 399.758 262.959 401.603 276.592C401.901 278.804 402.445 281.064 403.87 282.864C404.126 283.185 404.55 283.573 405.04 283.882C405.437 283.867 405.852 283.805 406.284 283.681C406.587 283.901 406.926 284.097 407.275 284.231C407.404 284.159 407.527 284.064 407.639 283.937L407.641 283.939Z" fill="#FEF4EC"/>
</g>
<defs>
<clipPath id="clip0_926_7791">
<rect y="0.666504" width="163" height="98.67" rx="16" fill="white"/>
</clipPath>
</defs>
</svg>
