<?xml version="1.0" encoding="UTF-8"?>
<svg id="Layer_1" data-name="Layer 1" xmlns="http://www.w3.org/2000/svg" viewBox="0 0 95 95">
  <defs>
    <style>
      .cls-1 {
        fill: #4c48d4;
      }

      .cls-2 {
        fill: #fef4ec;
      }

      .cls-3 {
        fill: #71b816;
      }

      .cls-4 {
        fill: #c62d2d;
      }

      .cls-5 {
        fill: #47ccd6;
      }

      .cls-6 {
        fill: #ed683e;
      }

      .cls-7 {
        fill: #5293e0;
      }

      .cls-8 {
        fill: #ecb83c;
      }

      .cls-9 {
        fill: none;
      }

      .cls-10 {
        fill: #4c48d5;
      }

      .cls-11 {
        fill: #e8e142;
      }
    </style>
  </defs>
  <path class="cls-10" d="M19.32,76.11l-5.2,5.2c.83,.83,1.7,1.62,2.61,2.39l4.73-5.64c-.74-.63-1.45-1.28-2.13-1.95h0Z"/>
  <path class="cls-10" d="M14.79,70.78l-6.03,4.22c.68,.96,1.39,1.89,2.15,2.8l5.64-4.73c-.62-.74-1.2-1.51-1.76-2.3h0Z"/>
  <path class="cls-1" d="M12.89,67.84l-6.37,3.68c.59,1.01,1.22,2.01,1.89,2.98l6.03-4.22c-.55-.8-1.06-1.61-1.55-2.44h0Z"/>
  <path class="cls-10" d="M16.94,73.54l-5.64,4.73c.76,.89,1.55,1.76,2.38,2.61l5.2-5.2c-.68-.69-1.33-1.4-1.95-2.13h0Z"/>
  <path class="cls-7" d="M11.26,64.74l-6.66,3.11c.5,1.06,1.05,2.11,1.62,3.14l6.37-3.68c-.48-.84-.92-1.69-1.33-2.57Z"/>
  <path class="cls-7" d="M9.89,61.51l-6.91,2.51c.41,1.1,.86,2.19,1.35,3.26l6.67-3.11c-.4-.88-.77-1.77-1.1-2.67Z"/>
  <path class="cls-5" d="M8.81,58.18l-7.1,1.9c.31,1.13,.67,2.26,1.06,3.37l6.91-2.51c-.32-.91-.61-1.83-.87-2.76h0Z"/>
  <path class="cls-5" d="M8.03,54.77l-7.24,1.28c.21,1.16,.47,2.31,.77,3.45l7.1-1.9c-.24-.93-.45-1.87-.63-2.82h0Z"/>
  <path class="cls-5" d="M7.54,51.3l-7.33,.64c.11,1.17,.27,2.34,.47,3.5l7.24-1.28c-.16-.95-.29-1.9-.38-2.86Z"/>
  <path class="cls-3" d="M10.98,30.81l-6.67-3.11c-.49,1.08-.95,2.16-1.35,3.26l6.91,2.52c.33-.9,.71-1.79,1.11-2.67h0Z"/>
  <path class="cls-3" d="M9.66,34.05l-6.91-2.52c-.4,1.12-.75,2.24-1.06,3.37l7.1,1.9c.25-.93,.55-1.84,.87-2.76h0Z"/>
  <path class="cls-3" d="M7.91,40.83l-7.25-1.28c-.2,1.16-.35,2.33-.46,3.5l7.33,.64c.09-.96,.21-1.91,.37-2.87h0Z"/>
  <path class="cls-3" d="M12.58,27.69l-6.37-3.68c-.59,1.03-1.13,2.08-1.63,3.13l6.67,3.11c.41-.86,.86-1.72,1.34-2.56Z"/>
  <path class="cls-3" d="M8.63,37.4l-7.1-1.9c-.3,1.14-.55,2.3-.76,3.45l7.25,1.28c.17-.94,.38-1.89,.62-2.82h0Z"/>
  <path class="cls-3" d="M7.48,44.3l-7.33-.64C.06,44.84,0,46.02,0,47.19H7.36c0-.96,.05-1.92,.12-2.89h0Z"/>
  <path class="cls-3" d="M7.36,47.8H0c0,1.18,.06,2.35,.16,3.53l7.33-.64c-.08-.96-.12-1.92-.13-2.89Z"/>
  <path class="cls-3" d="M18.89,19.32l-5.2-5.2c-.82,.83-1.62,1.7-2.38,2.61l5.64,4.73c.63-.74,1.28-1.45,1.95-2.13h0Z"/>
  <path class="cls-3" d="M12.88,27.16c.49-.84,1.01-1.65,1.55-2.44l-6.03-4.22c-.66,.96-1.3,1.96-1.89,2.98l6.37,3.68h0Z"/>
  <path class="cls-3" d="M16.55,21.92l-5.64-4.73c-.74,.9-1.46,1.84-2.15,2.8l6.03,4.22c.56-.79,1.15-1.55,1.76-2.29h0Z"/>
  <path class="cls-3" d="M27.16,12.89l-3.68-6.37c-1.01,.59-2.01,1.22-2.98,1.89l4.22,6.03c.8-.55,1.61-1.06,2.44-1.55h0Z"/>
  <path class="cls-3" d="M21.46,16.94l-4.73-5.64c-.89,.76-1.76,1.55-2.61,2.38l5.2,5.2c.69-.68,1.4-1.33,2.13-1.95h0Z"/>
  <path class="cls-3" d="M24.22,14.79l-4.22-6.03c-.96,.68-1.89,1.39-2.8,2.15l4.73,5.64c.74-.62,1.51-1.2,2.3-1.76h0Z"/>
  <path class="cls-6" d="M87.64,47.19h7.35c0-1.18-.07-2.35-.16-3.53l-7.33,.64c.08,.96,.12,1.92,.13,2.89h0Z"/>
  <path class="cls-6" d="M84.02,64.19l6.67,3.11c.49-1.07,.95-2.16,1.35-3.26l-6.91-2.52c-.33,.9-.71,1.79-1.11,2.67h0Z"/>
  <path class="cls-6" d="M86.97,40.23l7.24-1.28c-.21-1.16-.47-2.31-.77-3.45l-7.1,1.9c.24,.93,.45,1.87,.62,2.82h0Z"/>
  <path class="cls-6" d="M85.34,60.95l6.92,2.52c.4-1.11,.75-2.24,1.06-3.37l-7.1-1.9c-.25,.93-.54,1.85-.87,2.76h0Z"/>
  <path class="cls-6" d="M82.42,67.31l6.37,3.68c.59-1.03,1.13-2.07,1.63-3.13l-6.67-3.11c-.41,.86-.86,1.72-1.34,2.56Z"/>
  <path class="cls-6" d="M87.52,50.69l7.33,.64c.09-1.18,.14-2.35,.15-3.53h-7.36c0,.96-.05,1.92-.12,2.89h0Z"/>
  <path class="cls-6" d="M87.46,43.7l7.33-.64c-.11-1.17-.27-2.34-.47-3.5l-7.24,1.28c.16,.95,.29,1.9,.38,2.86Z"/>
  <path class="cls-6" d="M86.36,57.6l7.11,1.9c.3-1.14,.55-2.3,.76-3.45l-7.25-1.28c-.17,.94-.38,1.89-.62,2.82h0Z"/>
  <path class="cls-6" d="M87.1,54.17l7.25,1.28c.2-1.16,.35-2.33,.46-3.5l-7.33-.64c-.09,.96-.22,1.91-.37,2.87h0Z"/>
  <path class="cls-6" d="M86.18,36.82l7.1-1.9c-.31-1.13-.66-2.26-1.06-3.37l-6.91,2.51c.32,.91,.61,1.83,.87,2.76h0Z"/>
  <path class="cls-8" d="M73.07,16.55l4.73-5.64c-.9-.74-1.84-1.46-2.8-2.15l-4.22,6.03c.79,.56,1.55,1.15,2.3,1.76h0Z"/>
  <path class="cls-8" d="M70.28,14.43l4.22-6.03c-.96-.66-1.96-1.3-2.98-1.89l-3.68,6.37c.84,.49,1.65,1.01,2.44,1.55h0Z"/>
  <path class="cls-8" d="M80.21,24.22l6.03-4.22c-.68-.96-1.39-1.89-2.14-2.8l-5.64,4.73c.62,.74,1.2,1.51,1.76,2.3h0Z"/>
  <path class="cls-8" d="M82.11,27.16l6.37-3.68c-.59-1.01-1.22-2.01-1.89-2.98l-6.03,4.22c.55,.8,1.06,1.61,1.55,2.44h0Z"/>
  <path class="cls-8" d="M83.74,30.26l6.66-3.11c-.5-1.06-1.04-2.11-1.62-3.14l-6.37,3.68c.47,.84,.92,1.69,1.33,2.57h0Z"/>
  <path class="cls-8" d="M75.68,18.89l5.2-5.2c-.83-.82-1.7-1.62-2.61-2.38l-4.73,5.64c.74,.63,1.45,1.28,2.13,1.95h0Z"/>
  <path class="cls-8" d="M78.06,21.46l5.64-4.73c-.76-.89-1.55-1.76-2.38-2.61l-5.2,5.2c.68,.69,1.33,1.4,1.95,2.13h0Z"/>
  <path class="cls-8" d="M85.11,33.49l6.91-2.51c-.41-1.1-.86-2.19-1.35-3.26l-6.67,3.11c.4,.88,.77,1.77,1.1,2.67h0Z"/>
  <path class="cls-8" d="M67.31,12.58l3.68-6.37c-1.03-.59-2.07-1.13-3.13-1.63l-3.11,6.67c.86,.41,1.72,.86,2.56,1.34Z"/>
  <path class="cls-8" d="M64.19,10.98l3.11-6.67c-1.08-.49-2.16-.95-3.26-1.35l-2.52,6.91c.9,.33,1.79,.71,2.67,1.11h0Z"/>
  <path class="cls-11" d="M47.19,7.36V0c-1.18,0-2.36,.06-3.53,.16l.64,7.33c.96-.08,1.92-.12,2.89-.13Z"/>
  <path class="cls-11" d="M50.69,7.48l.64-7.33c-1.18-.09-2.35-.14-3.53-.15V7.36c.96,0,1.92,.05,2.89,.12Z"/>
  <path class="cls-11" d="M33.48,9.89l-2.51-6.91c-1.1,.41-2.19,.86-3.26,1.35l3.11,6.67c.88-.4,1.77-.77,2.67-1.1Z"/>
  <path class="cls-11" d="M54.17,7.91l1.28-7.25c-1.16-.2-2.33-.35-3.5-.46l-.64,7.33c.96,.09,1.91,.21,2.87,.37h0Z"/>
  <path class="cls-11" d="M43.7,7.54l-.64-7.33c-1.17,.11-2.34,.27-3.5,.47l1.28,7.24c.95-.16,1.9-.29,2.86-.38Z"/>
  <path class="cls-11" d="M30.26,11.26l-3.11-6.66c-1.06,.5-2.11,1.05-3.14,1.62l3.68,6.37c.84-.48,1.69-.92,2.57-1.33h0Z"/>
  <path class="cls-11" d="M40.23,8.03l-1.28-7.24c-1.16,.21-2.31,.47-3.45,.77l1.9,7.1c.93-.24,1.87-.45,2.82-.63h0Z"/>
  <path class="cls-11" d="M36.82,8.82l-1.9-7.1c-1.13,.31-2.26,.67-3.37,1.06l2.51,6.91c.91-.32,1.83-.61,2.76-.87h0Z"/>
  <path class="cls-11" d="M60.94,9.66l2.52-6.91c-1.11-.4-2.24-.75-3.37-1.06l-1.9,7.1c.93,.25,1.85,.55,2.76,.87h0Z"/>
  <path class="cls-11" d="M57.59,8.63l1.9-7.1c-1.14-.3-2.3-.55-3.45-.76l-1.28,7.25c.94,.17,1.89,.38,2.82,.62h0Z"/>
  <path class="cls-4" d="M78.45,73.07l5.64,4.73c.75-.9,1.46-1.84,2.15-2.8l-6.03-4.22c-.56,.79-1.15,1.55-1.76,2.29h0Z"/>
  <path class="cls-4" d="M80.57,70.28l6.03,4.22c.66-.96,1.3-1.96,1.89-2.98l-6.37-3.68c-.49,.84-1.01,1.65-1.55,2.44h0Z"/>
  <path class="cls-4" d="M73.54,78.06l4.73,5.64c.89-.76,1.76-1.55,2.61-2.38l-5.2-5.2c-.69,.68-1.4,1.33-2.13,1.95h0Z"/>
  <path class="cls-4" d="M76.11,75.68l5.2,5.2c.82-.83,1.62-1.7,2.39-2.61l-5.64-4.73c-.63,.74-1.28,1.45-1.95,2.13h0Z"/>
  <circle class="cls-2" cx="47.5" cy="47.5" r="13.5"/>
  <rect class="cls-9" width="95" height="95"/>
</svg>