<svg width="163" height="99" viewBox="0 0 163 99" fill="none" xmlns="http://www.w3.org/2000/svg">
<g clip-path="url(#clip0_926_7785)">
<rect width="163" height="98.67" rx="16" fill="white"/>
<path d="M407.641 396.038C408.063 395.567 408.561 395.502 408.895 394.715C409.373 393.592 409.494 392.359 409.59 391.169C410.224 383.332 411.483 375.657 412.704 367.881C413.262 364.319 413.808 360.757 414.352 357.205C414.352 357.205 419.713 334.8 419.713 331.616C422.915 315.304 403.744 277.217 403.744 277.217C402.804 274.632 402.04 271.968 401.403 269.263C400.943 267.314 400.544 265.344 400.188 263.369C395.092 235.245 397.663 206.689 397.696 178.345C397.711 164.219 397.104 150.042 394.584 136.086C391.776 120.537 386.992 105.489 387.151 89.5914C387.239 80.5928 387.732 71.5989 388.498 62.629C388.968 57.1159 389.883 51.6458 390.522 46.1494C391.111 41.0935 391.073 36.0448 391.458 30.9841C393.136 8.85499 387.917 -11.9455 379.295 -32.2816C375.638 -40.9092 369.499 -46.6019 359.47 -49.5919C349.026 -52.7063 339.093 -57.3624 329.183 -61.8127C329.183 -61.8127 326.779 -63.0384 324.398 -65.1929H151.56C149.182 -63.0384 146.775 -61.8127 146.775 -61.8127C136.865 -57.3624 126.932 -52.7015 116.488 -49.5871C106.457 -46.5947 100.32 -40.9068 96.6628 -32.2792C88.0415 -11.9431 82.8222 8.85739 84.5004 30.9865C84.8846 36.0496 84.8467 41.0959 85.4356 46.1518C86.0751 51.6482 86.99 57.1182 87.4601 62.6314C88.226 71.6013 88.7188 80.5952 88.8073 89.5938C88.9665 105.492 84.182 120.54 81.3739 136.088C78.854 150.044 78.2474 164.221 78.2626 178.347C78.2954 206.691 80.8659 235.248 75.7705 263.371C75.4115 265.346 75.0147 267.316 74.5547 269.265C73.9178 271.97 73.1545 274.634 72.2143 277.22C72.2143 277.22 53.0432 315.307 56.2455 331.619C56.2455 334.803 61.6063 357.207 61.6063 357.207C62.1498 360.76 62.6957 364.322 63.2543 367.884C64.4751 375.662 65.7338 383.334 66.3682 391.172C66.4516 392.215 66.5577 393.293 66.904 394.3C67.8291 395.014 68.6985 395.476 69.5073 395.732C69.6236 395.82 69.7398 395.916 69.8511 396.041C69.9648 396.168 70.0886 396.263 70.2175 396.335C70.9834 396.041 71.7113 395.433 72.0803 394.966C73.5058 393.166 74.0492 390.906 74.3475 388.694C76.1925 375.061 78.5103 361.478 80.1708 347.806C80.3452 346.36 80.4312 337.783 82.8929 337.532C84.8619 337.331 84.5459 348.239 84.5662 349.276C84.6925 356.319 84.5737 363.501 85.6024 370.488C85.6606 370.874 85.7288 371.664 85.835 372.64C87.8721 380.224 94.4108 375.439 94.4916 372.64C94.5397 371.008 97.3477 346.882 99.6781 327.082C100.254 321.306 101.002 315.544 101.72 309.782C102.35 304.46 102.757 301.053 102.757 301.053L103.884 290.487C103.406 260.051 127.996 183.351 127.999 183.343C130.076 172.829 131.284 163.357 131.906 155.009C131.949 154.626 131.995 154.241 132.035 153.858C132.022 153.796 132.012 153.726 132 153.662C133.122 137.211 131.985 125.282 130.943 118.529C130.943 118.529 130.726 114.653 130.43 108.407C130.43 108.407 130.43 108.403 130.43 108.393C130.124 101.987 129.735 93.0913 129.404 83.3098C129.404 82.4217 129.401 81.5503 129.399 80.6885L135.088 41.7112C135.088 41.7112 138.159 63.711 145.117 88.4782C149.245 106.057 155.349 140.067 148.944 167.539C148.067 170.294 147.167 173.045 146.25 175.791C143.197 184.921 139.956 194.003 136.759 203.098C123.148 248.479 103.434 344.062 139.072 441.319C139.084 441.352 139.097 441.383 139.11 441.415C139.506 442.465 139.898 443.519 140.285 444.572C144.796 456.472 147.794 466.098 149.518 473.761C150.344 476.911 151.113 480.071 151.83 483.238C155.652 499.45 158.164 516.008 160.027 532.495C161.7 547.318 162.694 562.237 162.443 577.143C162.031 601.815 159.562 625.608 161.903 650.327C163.209 664.123 163.829 678.001 166.129 691.703C168.418 705.339 173.41 718.101 177.684 731.262C179.951 738.248 181.789 745.348 183.778 752.41C183.778 752.41 183.894 752.98 184.147 753.93V766.587C184.147 766.587 182.38 775.054 183.065 783.193H220.912C220.821 781.996 220.788 781.074 220.831 780.021C221.577 775.233 220.498 773.043 220.498 773.043C220.313 769.007 216.509 763.606 216.795 759.027C217.083 754.447 223.316 709.569 224.858 699.335C230.479 658.734 226.063 623.776 223.862 610.421C223.475 608.496 223.124 606.572 222.805 604.647C220.326 589.721 219.894 574.867 221.936 559.927C222.032 558.442 222.34 556.427 222.906 553.791C222.927 553.693 222.947 553.59 222.969 553.489C223.149 552.517 223.333 551.548 223.533 550.574C228.894 520.415 223.854 470.328 223.854 470.328C221.625 450.246 227.81 388.612 227.81 388.615C232.668 363.323 237.978 331.645 237.978 331.645V331.647V331.645C237.978 331.645 243.288 363.326 248.146 388.615C248.146 388.615 254.331 450.248 252.101 470.328C252.101 470.328 247.062 520.413 252.422 550.574C252.625 551.546 252.807 552.517 252.986 553.489C253.006 553.59 253.027 553.69 253.047 553.791C253.613 556.427 253.921 558.44 254.017 559.927C256.06 574.867 255.627 589.721 253.148 604.647C252.829 606.569 252.478 608.494 252.091 610.419C249.89 623.772 245.474 658.73 251.096 699.33C252.637 709.562 258.87 754.44 259.158 759.017C259.446 763.597 255.642 768.992 255.455 773.028C255.455 773.028 254.374 775.231 255.122 780.019C255.167 781.072 255.134 781.994 255.041 783.191H292.888C293.573 775.051 291.816 766.584 291.816 766.584V753.928C292.069 752.977 292.18 752.407 292.18 752.407C294.169 745.346 296.007 738.245 298.274 731.26C302.548 718.098 307.537 705.336 309.827 691.701C312.127 677.998 312.744 664.121 314.05 650.325C316.391 625.603 313.922 601.81 313.507 577.141C313.257 562.234 314.25 547.316 315.923 532.493C317.786 516.006 320.298 499.447 324.12 483.236C324.835 480.069 325.604 476.909 326.433 473.758C328.154 466.096 331.154 456.47 335.666 444.57C336.052 443.516 336.444 442.463 336.841 441.412C336.854 441.381 336.866 441.348 336.879 441.316C372.517 344.06 352.8 248.476 339.192 203.095C335.994 194.001 332.754 184.919 329.701 175.788C328.783 173.042 327.883 170.292 327.006 167.537C320.604 140.064 326.706 106.054 330.833 88.4758C337.791 63.7086 340.862 41.7088 340.862 41.7088L346.552 80.6861C346.552 81.5455 346.552 82.4193 346.547 83.3074C346.215 93.0889 345.826 101.985 345.52 108.391C345.52 108.4 345.52 108.405 345.52 108.405C345.222 114.648 345.007 118.524 345.007 118.524C343.966 125.28 342.829 137.206 343.951 153.659C343.938 153.724 343.928 153.793 343.915 153.855C343.956 154.238 344.004 154.624 344.044 155.007C344.666 163.354 345.874 172.829 347.952 183.341C347.952 183.348 372.544 260.048 372.067 290.484L373.194 301.051C373.194 301.051 373.598 304.458 374.23 309.779C374.948 315.541 375.696 321.303 376.272 327.08C378.603 346.88 381.411 371.005 381.459 372.638C381.54 375.436 388.078 380.222 390.116 372.638C390.219 371.661 390.29 370.871 390.348 370.486C391.379 363.496 391.258 356.314 391.384 349.274C391.402 348.237 391.089 337.328 393.058 337.529C395.519 337.781 395.605 346.358 395.78 347.804C397.44 361.475 399.758 375.058 401.603 388.691C401.901 390.903 402.445 393.163 403.87 394.963C404.126 395.284 404.55 395.672 405.04 395.981C405.437 395.966 405.852 395.904 406.284 395.78C406.587 396 406.926 396.196 407.275 396.33C407.404 396.259 407.527 396.163 407.639 396.036L407.641 396.038Z" fill="#FEF4EC"/>
</g>
<defs>
<clipPath id="clip0_926_7785">
<rect width="163" height="98.67" rx="16" fill="white"/>
</clipPath>
</defs>
</svg>
