<svg width="163" height="99" viewBox="0 0 163 99" fill="none" xmlns="http://www.w3.org/2000/svg">
<g clip-path="url(#clip0_926_7797)">
<rect width="163" height="98.67" rx="16" fill="white"/>
<path d="M407.641 170.507C408.063 170.035 408.561 169.971 408.895 169.183C409.373 168.06 409.494 166.828 409.59 165.638C410.224 157.8 411.483 150.125 412.704 142.35C413.262 138.788 413.808 135.226 414.352 131.673C414.352 131.673 419.713 109.269 419.713 106.085C422.915 89.773 403.744 51.6862 403.744 51.6862C402.804 49.1008 402.04 46.4364 401.403 43.7313C400.943 41.7827 400.544 39.8125 400.188 37.8376C395.092 9.71411 397.663 -18.8426 397.696 -47.1863C397.711 -61.3127 397.104 -75.4893 394.584 -89.4457C391.776 -104.994 386.992 -120.042 387.151 -135.94C387.239 -144.938 387.732 -153.932 388.498 -162.902C388.968 -168.415 389.883 -173.885 390.522 -179.382C391.111 -184.438 391.073 -189.486 391.458 -194.547C393.136 -216.676 387.917 -237.477 379.295 -257.813C375.638 -266.44 369.499 -272.133 359.47 -275.123C349.026 -278.238 339.093 -282.894 329.183 -287.344C329.183 -287.344 326.779 -288.57 324.398 -290.724H151.56C149.182 -288.57 146.775 -287.344 146.775 -287.344C136.865 -282.894 126.932 -278.233 116.488 -275.118C106.457 -272.126 100.32 -266.438 96.6628 -257.81C88.0415 -237.474 82.8222 -216.674 84.5004 -194.545C84.8846 -189.482 84.8467 -184.435 85.4356 -179.379C86.0751 -173.883 86.99 -168.413 87.4601 -162.9C88.226 -153.93 88.7188 -144.936 88.8073 -135.937C88.9665 -120.04 84.182 -104.992 81.3739 -89.4433C78.854 -75.4869 78.2474 -61.3103 78.2626 -47.1839C78.2954 -18.8402 80.8659 9.7165 75.7705 37.8399C75.4115 39.8149 75.0147 41.7851 74.5547 43.7337C73.9178 46.4388 73.1545 49.1032 72.2143 51.6886C72.2143 51.6886 53.0432 89.7754 56.2455 106.087C56.2455 109.271 61.6063 131.676 61.6063 131.676C62.1498 135.228 62.6957 138.79 63.2543 142.352C64.4751 150.13 65.7338 157.803 66.3682 165.64C66.4516 166.684 66.5577 167.761 66.904 168.769C67.8291 169.482 68.6985 169.944 69.5073 170.201C69.6236 170.289 69.7398 170.385 69.8511 170.509C69.9648 170.636 70.0886 170.732 70.2175 170.804C70.9834 170.509 71.7113 169.901 72.0803 169.435C73.5058 167.634 74.0492 165.375 74.3475 163.163C76.1925 149.529 78.5103 135.946 80.1708 122.275C80.3452 120.829 80.4312 112.252 82.8929 112C84.8619 111.799 84.5459 122.708 84.5662 123.745C84.6925 130.788 84.5737 137.969 85.6024 144.957C85.6606 145.342 85.7288 146.132 85.835 147.109C87.8721 154.693 94.4108 149.908 94.4916 147.109C94.5397 145.476 97.3477 121.351 99.6781 101.551C100.254 95.7745 101.002 90.0124 101.72 84.2503C102.35 78.9287 102.757 75.5222 102.757 75.5222L103.884 64.9556C103.406 34.5196 127.996 -42.1807 127.999 -42.1879C130.076 -52.7018 131.284 -62.1745 131.906 -70.522C131.949 -70.905 131.995 -71.2904 132.035 -71.6734C132.022 -71.7357 132.012 -71.8051 132 -71.8697C133.122 -88.3206 131.985 -100.249 130.943 -107.002C130.943 -107.002 130.726 -110.878 130.43 -117.124C130.43 -117.124 130.43 -117.129 130.43 -117.138C130.124 -123.544 129.735 -132.44 129.404 -142.221C129.404 -143.11 129.401 -143.981 129.399 -144.843L135.088 -183.82C135.088 -183.82 138.159 -161.82 145.117 -137.053C149.245 -119.475 155.349 -85.4646 148.944 -57.9923C148.067 -55.237 147.167 -52.4864 146.25 -49.7406C143.197 -40.6103 139.956 -31.5279 136.759 -22.4335C123.148 22.9475 103.434 118.531 139.072 215.788C139.084 215.821 139.097 215.852 139.11 215.883C139.506 216.934 139.898 217.987 140.285 219.041C144.796 230.941 147.794 240.567 149.518 248.23C150.344 251.38 151.113 254.54 151.83 257.707C155.652 273.918 158.164 290.477 160.027 306.964C161.7 321.787 162.694 336.705 162.443 351.612C162.031 376.284 159.562 400.076 161.903 424.796C163.209 438.592 163.829 452.469 166.129 466.172C168.418 479.807 173.41 492.569 177.684 505.731C179.951 512.716 181.789 519.817 183.778 526.879C183.778 526.879 183.894 527.448 184.147 528.399V541.055C184.147 541.055 182.38 549.522 183.065 557.662H220.912C220.821 556.465 220.788 555.543 220.831 554.49C221.577 549.702 220.498 547.512 220.498 547.512C220.313 543.475 216.509 538.075 216.795 533.495C217.083 528.916 223.316 484.037 224.858 473.804C230.479 433.203 226.063 398.245 223.862 384.89C223.475 382.965 223.124 381.04 222.805 379.116C220.326 364.19 219.894 349.336 221.936 334.395C222.032 332.911 222.34 330.895 222.906 328.26C222.927 328.162 222.947 328.059 222.969 327.958C223.149 326.986 223.333 326.017 223.533 325.042C228.894 294.884 223.854 244.797 223.854 244.797C221.625 224.714 227.81 163.081 227.81 163.084C232.668 137.792 237.978 106.114 237.978 106.114V106.116V106.114C237.978 106.114 243.288 137.794 248.146 163.084C248.146 163.084 254.331 224.717 252.101 244.797C252.101 244.797 247.062 294.882 252.422 325.042C252.625 326.014 252.807 326.986 252.986 327.958C253.006 328.059 253.027 328.159 253.047 328.26C253.613 330.895 253.921 332.909 254.017 334.395C256.06 349.336 255.627 364.19 253.148 379.116C252.829 381.038 252.478 382.963 252.091 384.887C249.89 398.24 245.474 433.198 251.096 473.799C252.637 484.03 258.87 528.909 259.158 533.486C259.446 538.065 255.642 543.461 255.455 547.497C255.455 547.497 254.374 549.7 255.122 554.487C255.167 555.541 255.134 556.462 255.041 557.659H292.888C293.573 549.52 291.816 541.053 291.816 541.053V528.396C292.069 527.446 292.18 526.876 292.18 526.876C294.169 519.814 296.007 512.714 298.274 505.729C302.548 492.567 307.537 479.805 309.827 466.169C312.127 452.467 312.744 438.589 314.05 424.793C316.391 400.072 313.922 376.279 313.507 351.61C313.257 336.703 314.25 321.784 315.923 306.961C317.786 290.475 320.298 273.916 324.12 257.705C324.835 254.537 325.604 251.378 326.433 248.227C328.154 240.564 331.154 230.938 335.666 219.038C336.052 217.985 336.444 216.932 336.841 215.881C336.854 215.85 336.866 215.816 336.879 215.785C372.517 118.528 352.8 22.9451 339.192 -22.4359C335.994 -31.5303 332.754 -40.6127 329.701 -49.743C328.783 -52.4888 327.883 -55.2394 327.006 -57.9947C320.604 -85.467 326.706 -119.477 330.833 -137.055C337.791 -161.823 340.862 -183.822 340.862 -183.822L346.552 -144.845C346.552 -143.986 346.552 -143.112 346.547 -142.224C346.215 -132.442 345.826 -123.547 345.52 -117.141C345.52 -117.131 345.52 -117.126 345.52 -117.126C345.222 -110.883 345.007 -107.007 345.007 -107.007C343.966 -100.252 342.829 -88.3254 343.951 -71.8721C343.938 -71.8075 343.928 -71.7381 343.915 -71.6758C343.956 -71.2928 344.004 -70.9074 344.044 -70.5244C344.666 -62.1769 345.874 -52.7018 347.952 -42.1903C347.952 -42.1831 372.544 34.5172 372.067 64.9532L373.194 75.5198C373.194 75.5198 373.598 78.9263 374.23 84.2479C374.948 90.01 375.696 95.7721 376.272 101.549C378.603 121.348 381.411 145.474 381.459 147.107C381.54 149.905 388.078 154.691 390.116 147.107C390.219 146.13 390.29 145.34 390.348 144.955C391.379 137.964 391.258 130.783 391.384 123.742C391.402 122.706 391.089 111.797 393.058 111.998C395.519 112.249 395.605 120.827 395.78 122.273C397.44 135.944 399.758 149.527 401.603 163.16C401.901 165.372 402.445 167.632 403.87 169.432C404.126 169.753 404.55 170.141 405.04 170.45C405.437 170.435 405.852 170.373 406.284 170.249C406.587 170.469 406.926 170.665 407.275 170.799C407.404 170.727 407.527 170.632 407.639 170.505L407.641 170.507Z" fill="#FEF4EC"/>
</g>
<defs>
<clipPath id="clip0_926_7797">
<rect width="163" height="98.67" rx="16" fill="white"/>
</clipPath>
</defs>
</svg>
