<svg width="163" height="163" viewBox="0 0 163 163" fill="none" xmlns="http://www.w3.org/2000/svg">
<g clip-path="url(#clip0_842_7685)">
<rect width="163" height="163" rx="16" fill="white"/>
<path d="M407.641 596.619C408.063 596.121 408.561 596.053 408.895 595.22C409.373 594.033 409.494 592.729 409.59 591.471C410.224 583.185 411.483 575.071 412.704 566.85C413.262 563.084 413.808 559.318 414.352 555.562C414.352 555.562 419.713 531.875 419.713 528.509C422.915 511.262 403.744 470.995 403.744 470.995C402.804 468.261 402.04 465.444 401.403 462.584C400.943 460.524 400.544 458.441 400.188 456.353C395.092 426.619 397.663 396.427 397.696 366.461C397.711 351.525 397.104 336.537 394.584 321.781C391.776 305.343 386.992 289.433 387.151 272.625C387.239 263.111 387.732 253.602 388.498 244.119C388.968 238.29 389.883 232.506 390.522 226.695C391.111 221.35 391.073 216.012 391.458 210.662C393.136 187.265 387.917 165.274 379.295 143.773C375.638 134.652 369.499 128.633 359.47 125.472C349.026 122.179 339.093 117.256 329.183 112.551C329.183 112.551 326.779 111.255 324.398 108.977L162.999 99.6631C161.602 108.977 146.233 115.963 146.233 115.963C136.323 120.668 126.932 122.184 116.488 125.477C106.457 128.64 100.32 134.654 96.6628 143.776C88.0415 165.276 82.8222 187.268 84.5004 210.664C84.8846 216.017 84.8467 221.352 85.4356 226.698C86.0751 232.509 86.99 238.292 87.4601 244.121C88.226 253.605 88.7188 263.113 88.8073 272.627C88.9665 289.436 84.182 305.345 81.3739 321.784C78.854 336.539 78.2474 351.528 78.2626 366.463C78.2954 396.43 80.8659 426.622 75.7704 456.356C75.4115 458.444 75.0147 460.527 74.5547 462.587C73.9178 465.447 73.1545 468.264 72.2143 470.997C72.2143 470.997 53.0432 511.265 56.2455 528.511C56.2455 531.877 61.6063 555.565 61.6063 555.565C62.1498 559.321 62.6957 563.087 63.2543 566.853C64.4751 575.076 65.7338 583.188 66.3682 591.474C66.4516 592.577 66.5577 593.716 66.904 594.782C67.8291 595.536 68.6985 596.025 69.5073 596.295C69.6236 596.389 69.7398 596.49 69.8511 596.622C69.9648 596.756 70.0886 596.857 70.2175 596.933C70.9834 596.622 71.7113 595.979 72.0803 595.486C73.5058 593.582 74.0492 591.193 74.3475 588.854C76.1925 574.441 78.5103 560.08 80.1708 545.625C80.3452 544.097 80.4312 535.028 82.8929 534.763C84.8619 534.55 84.5459 546.084 84.5662 547.179C84.6925 554.626 84.5737 562.218 85.6024 569.606C85.6606 570.014 85.7288 570.849 85.835 571.882C87.8721 579.9 94.4108 574.84 94.4916 571.882C94.5397 570.156 97.3477 544.649 99.6781 523.715C100.254 517.608 101.002 511.516 101.72 505.424C102.35 499.797 102.757 496.196 102.757 496.196L103.884 485.024C103.406 452.845 127.996 371.753 127.999 371.745C130.076 360.629 131.284 350.614 131.906 341.789C131.949 341.384 131.995 340.976 132.035 340.571C132.022 340.505 132.012 340.432 132 340.364C133.122 322.971 131.985 310.359 130.943 303.219C130.943 303.219 130.726 299.122 130.43 292.518C130.43 292.518 130.43 292.513 130.43 292.503C130.124 285.73 129.735 276.325 129.404 265.984C129.404 265.045 129.401 264.123 129.399 263.212L135.088 222.003C135.088 222.003 138.159 245.263 145.117 271.448C149.245 290.033 155.349 325.99 148.944 355.036C148.067 357.949 147.167 360.857 146.25 363.76C143.197 373.413 139.956 383.016 136.759 392.631C123.148 440.61 103.434 541.667 139.072 644.493C139.084 644.528 139.097 644.561 139.11 644.594C139.506 645.705 139.898 646.819 140.285 647.932C144.796 660.514 147.794 670.691 149.518 678.792C150.344 682.123 151.113 685.464 151.83 688.813C155.652 705.952 158.164 723.459 160.027 740.89C161.7 756.562 162.694 772.335 162.443 788.095C162.031 814.179 159.562 839.334 161.903 865.469C163.209 880.055 163.829 894.727 166.129 909.215C168.418 923.631 173.41 937.124 177.684 951.039C179.951 958.424 181.789 965.931 183.778 973.397C183.778 973.397 183.894 974 184.147 975.005V988.386C184.147 988.386 182.38 997.338 183.065 1005.94H220.912C220.821 1004.68 220.788 1003.7 220.831 1002.59C221.577 997.528 220.498 995.212 220.498 995.212C220.313 990.945 216.509 985.235 216.795 980.393C217.083 975.551 223.316 928.103 224.858 917.283C230.479 874.358 226.063 837.398 223.862 823.278C223.475 821.243 223.124 819.208 222.805 817.173C220.326 801.393 219.894 785.688 221.936 769.892C222.032 768.323 222.34 766.192 222.906 763.405C222.927 763.302 222.947 763.193 222.969 763.086C223.149 762.059 223.333 761.034 223.533 760.004C228.894 728.119 223.854 675.163 223.854 675.163C221.625 653.931 227.81 588.768 227.81 588.771C232.667 562.031 237.978 528.539 237.978 528.539C237.978 528.539 243.288 562.034 248.146 588.771C248.146 588.771 254.331 653.933 252.101 675.163C252.101 675.163 247.062 728.116 252.422 760.004C252.625 761.031 252.807 762.059 252.986 763.086C253.006 763.193 253.027 763.299 253.047 763.405C253.613 766.192 253.921 768.321 254.017 769.892C256.06 785.688 255.627 801.393 253.148 817.173C252.829 819.206 252.478 821.241 252.091 823.275C249.89 837.393 245.474 874.353 251.095 917.278C252.637 928.096 258.87 975.544 259.158 980.383C259.446 985.225 255.642 990.929 255.455 995.197C255.455 995.197 254.374 997.525 255.122 1002.59C255.167 1003.7 255.134 1004.68 255.041 1005.94H292.888C293.573 997.335 291.816 988.383 291.816 988.383V975.002C292.069 973.997 292.18 973.395 292.18 973.395C294.169 965.929 296.007 958.422 298.274 951.036C302.548 937.121 307.537 923.628 309.827 909.212C312.127 894.725 312.744 880.053 314.05 865.467C316.391 839.329 313.922 814.174 313.507 788.092C313.257 772.332 314.25 756.559 315.923 740.887C317.786 723.456 320.298 705.95 324.12 688.81C324.835 685.462 325.604 682.121 326.433 678.79C328.154 670.688 331.154 660.511 335.666 647.93C336.052 646.816 336.444 645.703 336.841 644.591C336.854 644.559 336.866 644.523 336.879 644.49C372.517 541.665 352.8 440.608 339.191 392.628C335.994 383.013 332.754 373.411 329.701 363.757C328.783 360.854 327.883 357.946 327.006 355.033C320.604 325.988 326.706 290.03 330.833 271.445C337.791 245.26 340.862 222 340.862 222L346.552 263.21C346.552 264.118 346.552 265.042 346.546 265.981C346.215 276.323 345.826 285.728 345.52 292.501C345.52 292.511 345.52 292.516 345.52 292.516C345.222 299.117 345.007 303.214 345.007 303.214C343.966 310.357 342.829 322.966 343.951 340.361C343.938 340.43 343.928 340.503 343.915 340.569C343.956 340.974 344.004 341.381 344.044 341.786C344.666 350.612 345.874 360.629 347.952 371.743C347.952 371.75 372.544 452.843 372.067 485.021L373.194 496.193C373.194 496.193 373.598 499.795 374.23 505.421C374.948 511.513 375.696 517.605 376.272 523.712C378.603 544.646 381.411 570.153 381.459 571.879C381.54 574.838 388.078 579.897 390.116 571.879C390.219 570.847 390.29 570.011 390.348 569.604C391.379 562.213 391.258 554.621 391.384 547.177C391.402 546.081 391.089 534.547 393.058 534.76C395.519 535.026 395.605 544.094 395.78 545.623C397.44 560.077 399.758 574.438 401.603 588.852C401.901 591.191 402.445 593.58 403.87 595.483C404.125 595.822 404.55 596.232 405.04 596.559C405.437 596.544 405.852 596.478 406.284 596.346C406.587 596.579 406.926 596.786 407.275 596.928C407.404 596.852 407.527 596.751 407.639 596.617L407.641 596.619Z" fill="#FEF4EC"/>
</g>
<defs>
<clipPath id="clip0_842_7685">
<rect width="163" height="163" rx="16" fill="white"/>
</clipPath>
</defs>
</svg>
